<svg version="1.1" id="Layer_1" xmlns="http://www.w3.org/2000/svg" xmlns:xlink="http://www.w3.org/1999/xlink" x="0px" y="0px"
	 width="100%" viewBox="0 0 654 666" enable-background="new 0 0 654 666" xml:space="preserve">
<path fill="#FEF6ED" opacity="1.000000" stroke="none" 
	d="
M655.000000,227.000000 
	C655.000000,373.999969 655.000000,520.499939 655.000000,667.000000 
	C437.000031,667.000000 219.000092,667.000000 1.000098,667.000000 
	C1.000065,445.000061 1.000065,223.000137 1.000033,1.000157 
	C218.999893,1.000105 436.999786,1.000105 654.999878,1.000052 
	C655.000000,76.166664 655.000000,151.333328 655.000000,227.000000 
M187.910751,372.922516 
	C187.938965,377.613800 187.967178,382.305054 187.601074,387.527649 
	C181.804352,393.379761 176.007614,399.231873 169.709442,405.308289 
	C169.499939,405.601746 169.290436,405.895172 168.488510,406.453064 
	C166.390778,408.661407 164.293030,410.869781 161.585159,413.362000 
	C159.416260,415.636536 157.247345,417.911072 154.505783,420.430359 
	C153.339417,421.625671 152.173065,422.820984 150.355865,424.186218 
	C138.139236,436.536133 125.922623,448.886017 113.095505,461.589264 
	C108.999649,465.855835 104.903793,470.122437 100.710899,474.490112 
	C99.463089,473.127228 98.802094,472.405273 97.824554,471.079010 
	C94.578903,465.664246 91.333252,460.249451 88.098991,454.066803 
	C87.516113,452.368896 86.995468,450.646606 86.340538,448.976959 
	C80.939728,435.208313 74.313950,421.790070 70.294731,407.631134 
	C47.804157,328.401215 60.131153,254.149963 103.883080,184.807678 
	C115.491600,166.409378 129.941742,150.323105 146.072113,134.931274 
	C156.401077,126.681816 166.730057,118.432358 177.735703,110.000450 
	C182.370300,107.091637 186.881393,103.958672 191.666245,101.322601 
	C200.498322,96.456810 209.491013,91.882484 219.103943,86.946129 
	C236.114807,81.524963 253.125671,76.103798 271.005127,70.668190 
	C276.078491,69.740082 281.118530,68.512138 286.231842,67.943184 
	C298.788818,66.546005 311.379578,65.452354 324.856995,64.536186 
	C338.903534,65.416054 352.950104,66.295921 367.379181,67.417648 
	C367.379181,67.417648 367.831085,67.393135 368.384399,67.750313 
	C369.253845,67.792610 370.123291,67.834908 371.736877,68.160088 
	C383.158234,70.816628 394.579590,73.473167 406.620087,76.491043 
	C419.068634,81.481285 431.517181,86.471519 444.414062,91.919403 
	C454.478058,97.674866 464.542084,103.430336 475.051849,109.723061 
	C479.527435,112.894577 484.131714,115.903069 488.431213,119.297615 
	C491.090027,121.396805 492.708466,121.095917 495.049133,118.715721 
	C506.710327,106.857635 518.571533,95.196335 530.344849,83.448227 
	C531.492004,82.303528 532.519287,81.038750 533.927612,79.466408 
	C518.739624,68.018784 504.561279,55.934998 487.117706,47.961197 
	C485.768677,47.039787 484.522156,45.889587 483.054810,45.232227 
	C467.742645,38.372311 452.395050,31.591488 436.527649,24.331093 
	C427.683838,21.931564 418.839996,19.532038 409.470886,16.922016 
	C409.097443,16.907751 408.723999,16.893486 408.116333,16.196629 
	C407.077393,15.814710 406.038483,15.432791 404.354248,14.640953 
	C394.568024,12.794884 384.781799,10.948814 374.271606,8.743549 
	C361.504974,7.615514 348.738373,6.487478 335.054932,5.180287 
	C328.702515,5.399276 322.350128,5.618265 315.414795,5.561475 
	C314.606110,5.700874 313.797394,5.840274 312.070740,5.872003 
	C306.424957,6.270555 300.678375,6.131083 295.152008,7.166843 
	C277.375153,10.498619 259.679565,14.264086 241.163727,17.882814 
	C230.734131,21.503597 220.304535,25.124378 209.236221,28.785194 
	C208.095108,29.326744 206.954010,29.868296 205.090393,30.519960 
	C203.381409,31.304249 201.672424,32.088539 199.236160,32.954815 
	C191.464966,36.901970 183.693771,40.849121 175.213196,44.908566 
	C163.386703,52.561382 151.560226,60.214203 139.083649,68.049522 
	C136.982895,70.009430 134.882126,71.969330 132.157059,74.109634 
	C130.776093,75.085350 129.395142,76.061066 127.372978,77.239296 
	C115.729485,88.173233 103.213531,98.324524 92.587021,110.170738 
	C32.841961,176.773300 2.446052,254.634033 4.692394,344.550751 
	C6.064327,399.466553 21.303747,450.620636 48.458935,498.117798 
	C57.008751,513.072266 67.784119,526.754333 77.764374,541.572876 
	C81.569099,546.078918 85.373825,550.584900 88.275444,554.021362 
	C100.166016,542.734558 111.607414,531.874084 123.653008,520.740417 
	C131.774078,512.507935 139.895157,504.275391 148.605164,495.785339 
	C149.758179,494.531799 150.911194,493.278290 152.521133,491.862671 
	C152.810318,491.672180 152.977875,491.405304 153.631546,490.779694 
	C164.735397,479.513458 175.839249,468.247253 187.546997,456.694672 
	C209.683731,434.545227 231.857178,412.432068 253.870422,390.160553 
	C255.262802,388.751862 256.024994,386.113861 256.038605,384.040924 
	C256.209351,358.057312 256.187744,332.072449 256.893555,306.083252 
	C257.871094,306.894318 258.924438,307.630280 259.814331,308.528198 
	C267.554596,316.338135 275.265533,324.177094 283.397217,332.530151 
	C285.177643,334.271088 286.968658,336.001312 288.736816,337.754608 
	C303.004395,351.902283 317.267670,366.054230 331.876648,380.798401 
	C333.625305,382.560699 335.361084,384.335999 337.124664,386.083191 
	C348.605286,397.457062 360.091949,408.824799 371.937195,420.782074 
	C379.847382,428.575623 387.757568,436.369141 395.999207,444.759705 
	C407.988983,456.533386 419.978760,468.307068 432.232635,480.663513 
	C433.774109,482.126038 435.315613,483.588531 437.167236,485.655487 
	C439.255157,488.311737 441.343109,490.967957 443.750397,494.030487 
	C446.798279,490.745148 448.539795,488.867950 450.859711,486.701904 
	C459.081757,478.517090 467.227753,470.253479 475.572662,462.195892 
	C478.043823,459.809814 479.031464,457.344391 479.023193,453.897644 
	C478.908966,406.417328 478.937256,358.936646 478.906708,311.456085 
	C478.902527,304.966827 478.769257,298.477661 478.885101,291.255310 
	C478.817810,290.507477 478.750488,289.759674 478.885559,288.205170 
	C478.179535,283.208374 481.778564,280.470856 484.695709,277.495941 
	C489.750549,272.340973 494.987091,267.364105 500.744293,261.982391 
	C504.021271,258.713593 507.322601,255.468811 510.570740,252.171600 
	C520.304016,242.291199 530.016541,232.390259 540.336731,222.256638 
	C547.489624,215.342560 554.642517,208.428482 562.044128,201.273956 
	C563.123840,204.216431 563.853027,206.203568 564.787292,208.910782 
	C571.142334,224.964767 577.497437,241.018753 583.879456,257.880310 
	C586.750916,271.204865 590.162048,284.440735 592.369812,297.874359 
	C595.865112,319.142181 596.205139,340.677551 593.546997,362.014771 
	C591.505432,378.402527 587.651062,394.564453 584.214844,411.329529 
	C583.933960,412.554138 583.653015,413.778778 583.004028,415.682831 
	C581.461243,420.378265 579.918396,425.073700 578.012024,430.330841 
	C577.497620,431.837585 576.983154,433.344299 576.072327,435.402466 
	C574.650391,439.063538 573.228455,442.724609 571.167847,446.784454 
	C570.003052,449.523071 568.838318,452.261658 567.185486,455.458344 
	C565.672546,458.584839 564.159607,461.711334 562.164978,465.299164 
	C560.364868,468.467224 558.764954,471.770691 556.729553,474.779602 
	C548.454163,487.013306 540.045105,499.156708 531.095154,511.660706 
	C529.696838,513.350037 528.298523,515.039368 526.326172,517.087524 
	C524.571716,519.133728 522.817200,521.179993 520.481018,523.508972 
	C515.998840,527.951294 511.849426,532.804749 506.968994,536.755005 
	C494.727264,546.663757 482.154724,556.163818 469.056702,565.992859 
	C463.428833,569.449585 458.095093,573.567139 452.113525,576.229126 
	C438.578125,582.252747 424.723175,587.558350 410.238708,593.162903 
	C390.598389,599.398376 370.428101,602.995972 349.107483,605.123535 
	C329.306488,607.006042 309.643280,605.279846 289.334106,602.482910 
	C277.219055,599.661987 265.104004,596.841003 252.547775,593.645142 
	C251.894974,593.619141 251.153793,593.788452 250.602249,593.538757 
	C233.713699,585.893921 216.843750,578.207947 199.374054,570.093689 
	C190.458954,564.401611 181.543869,558.709595 172.835785,553.149658 
	C158.941589,566.982727 145.177826,580.685974 131.074631,594.727112 
	C136.211838,598.453369 141.065048,602.503967 146.408554,605.746643 
	C160.439087,614.260986 174.683182,622.423401 189.351471,631.100708 
	C205.233536,637.351196 221.115601,643.601685 237.674393,650.210938 
	C238.622253,650.513855 239.553299,650.892090 240.520523,651.108337 
	C251.310745,653.520142 262.106537,655.907043 273.548004,658.725525 
	C275.337219,659.045044 277.122437,659.389221 278.916260,659.680481 
	C300.222137,663.139954 321.648682,664.155579 344.034637,662.968872 
	C366.097260,662.172974 387.749664,658.770874 409.689087,652.765503 
	C411.459930,652.183655 413.230774,651.601807 415.574524,651.082520 
	C416.097015,650.869141 416.619507,650.655762 417.929382,650.339233 
	C438.167114,644.358765 457.653351,636.573547 476.748810,626.027771 
	C498.489563,614.489746 518.905212,601.029297 537.772522,584.124390 
	C541.115845,581.135559 544.783386,578.435425 547.746643,575.108093 
	C560.979980,560.248901 574.012329,545.210693 587.685852,529.855713 
	C604.380554,507.430969 617.657471,483.080902 628.050354,457.182617 
	C650.953918,400.108887 657.523376,341.144135 647.836975,280.411713 
	C644.643860,260.391907 639.413147,240.889923 632.049011,221.199402 
	C625.052124,201.863983 616.620178,183.215759 605.291931,165.146439 
	C596.768738,152.984680 588.245544,140.822937 579.419800,128.022186 
	C577.726562,125.664001 576.033264,123.305824 574.009033,120.486687 
	C572.288025,122.373482 570.996704,123.789238 569.092957,125.550903 
	C558.294373,136.320099 547.495850,147.089294 536.118286,158.152039 
	C527.030212,167.273636 517.942139,176.395233 508.238617,185.849731 
	C490.803741,203.181595 473.368835,220.513443 455.334381,238.156464 
	C441.287354,252.334808 427.198761,266.472565 413.254395,280.751160 
	C411.779175,282.261719 410.268829,284.597015 410.264008,286.553345 
	C410.207916,309.338440 410.437866,332.124237 410.311096,355.642090 
	C410.311096,358.528595 410.311096,361.415100 410.311096,365.456696 
	C401.549316,357.010742 393.764374,349.506409 385.682495,341.404449 
	C370.738953,326.619934 355.795441,311.835388 340.574463,296.458313 
	C326.226868,282.232544 311.879242,268.006775 297.165894,253.189987 
	C282.931091,239.065445 268.696320,224.940903 254.131805,210.211182 
	C248.320175,204.501221 242.508545,198.791260 236.422760,192.502213 
	C231.727936,187.675034 227.033096,182.847870 222.795822,178.491165 
	C211.352402,189.647141 200.511948,200.146271 189.796478,210.771439 
	C188.755371,211.803757 188.041306,213.587387 187.949875,215.070038 
	C187.746658,218.365448 188.034775,221.691147 187.938187,225.925903 
	C187.919266,257.001678 187.873703,288.077484 187.892334,319.153229 
	C187.902084,335.433136 188.024460,351.712952 187.915100,368.783539 
	C187.974167,369.857758 188.033234,370.931976 187.910751,372.922516 
z"/>
<path fill="#ED433C" opacity="1.000000" stroke="none" 
	d="
M145.509476,135.210510 
	C129.941742,150.323105 115.491600,166.409378 103.883080,184.807678 
	C60.131153,254.149963 47.804157,328.401215 70.294731,407.631134 
	C74.313950,421.790070 80.939728,435.208313 86.340538,448.976959 
	C86.995468,450.646606 87.516113,452.368896 87.883514,454.734253 
	C79.716148,459.416321 76.119164,466.624207 78.881241,473.795044 
	C80.170975,477.143372 83.150673,480.018555 80.167007,483.948761 
	C79.844482,484.373627 80.910591,485.946167 81.457840,486.915619 
	C82.245583,488.311066 83.148239,489.641693 84.000526,491.400574 
	C82.719109,497.913452 80.935989,503.973389 80.293480,510.151947 
	C79.581367,516.999939 79.143730,523.546265 70.210754,526.499146 
	C72.215111,528.628601 73.530426,530.366516 75.174110,531.699585 
	C78.358292,534.282166 80.258583,537.016357 77.540886,541.018738 
	C67.784119,526.754333 57.008751,513.072266 48.458935,498.117798 
	C21.303747,450.620636 6.064327,399.466553 4.692394,344.550751 
	C2.446052,254.634033 32.841961,176.773300 92.587021,110.170738 
	C103.213531,98.324524 115.729485,88.173233 127.844345,77.465302 
	C130.697281,78.748795 133.058548,79.861656 135.499390,80.757690 
	C135.692825,80.828712 137.016876,78.989258 136.833374,78.728294 
	C135.633743,77.022385 134.163315,75.506927 132.781372,73.929230 
	C134.882126,71.969330 136.982895,70.009430 139.747086,68.121170 
	C143.618576,69.301331 146.826630,70.409836 150.766495,71.771217 
	C149.821136,76.855164 154.153580,84.016510 146.749451,89.067665 
	C145.676727,89.799492 145.233093,91.998482 145.158798,93.550179 
	C144.899033,98.974556 145.324982,104.455414 144.746292,109.834763 
	C144.051315,116.295204 142.852661,122.734032 141.373291,129.065674 
	C140.439438,133.062546 141.913422,134.654068 145.509476,135.210510 
z"/>
<path fill="#FAAC2D" opacity="1.000000" stroke="none" 
	d="
M632.120911,221.957214 
	C639.413147,240.889923 644.643860,260.391907 647.836975,280.411713 
	C657.523376,341.144135 650.953918,400.108887 628.050354,457.182617 
	C617.657471,483.080902 604.380554,507.430969 587.248718,529.725220 
	C584.680786,526.884644 581.451172,524.457764 580.663513,521.401489 
	C579.307739,516.140808 579.473083,510.488159 579.264038,504.779572 
	C583.579346,500.376678 584.551147,494.727417 585.317017,489.512634 
	C586.000305,484.860107 588.932434,479.701569 585.000000,474.666687 
	C585.000000,473.888885 585.000000,473.444458 585.314209,472.832214 
	C585.974060,472.307556 586.518127,472.006073 586.635559,471.585449 
	C588.546753,464.743469 592.167664,458.141937 589.453613,450.630768 
	C589.140259,449.763458 589.913635,448.536835 590.065857,447.460236 
	C590.311523,445.722168 590.613953,443.969635 590.606445,442.224457 
	C590.598694,440.426758 589.605530,438.389740 590.170837,436.879425 
	C591.776550,432.589478 590.388123,429.058868 588.260010,425.566925 
	C585.951904,421.779694 586.526550,418.240479 588.202026,414.271973 
	C589.700562,410.722656 589.781982,406.598053 591.073242,402.933258 
	C593.374939,396.401093 588.522461,387.869202 596.107483,383.728241 
	C595.595642,380.686005 594.000610,377.470795 594.994019,375.976105 
	C598.448242,370.779175 598.574341,365.128265 599.042542,359.354858 
	C599.735596,350.807709 600.828369,341.958435 607.145996,335.743896 
	C611.148010,331.807220 614.895508,328.968597 614.395447,322.498688 
	C614.221436,320.247070 614.918152,317.869904 614.244568,315.281189 
	C613.719299,313.262329 614.716797,310.792114 615.245178,308.571869 
	C615.661926,306.820343 616.842346,305.161346 616.909180,303.431396 
	C617.179749,296.426819 619.115540,290.165039 623.515198,284.572205 
	C624.589783,283.206238 624.736267,280.854675 624.737000,278.956055 
	C624.738281,275.649963 623.918274,272.319031 624.133240,269.043854 
	C624.396362,265.035156 626.669373,261.130157 624.291870,257.014404 
	C624.013916,256.533264 624.773865,254.755981 625.351624,254.584000 
	C631.680786,252.699783 629.856995,248.022003 629.416748,243.643188 
	C628.839905,237.904449 628.256531,232.133728 628.327271,226.384781 
	C628.345581,224.893600 630.790527,223.432266 632.120911,221.957214 
z"/>
<path fill="#F25C34" opacity="1.000000" stroke="none" 
	d="
M236.696899,193.081299 
	C242.508545,198.791260 248.320175,204.501221 253.900909,210.589462 
	C250.297867,212.182236 249.905624,214.987167 252.394409,216.538269 
	C256.049957,218.816544 255.611145,222.298126 256.693176,225.417557 
	C257.909576,228.924438 259.399933,232.336304 261.225891,236.934830 
	C257.079865,241.943222 259.997009,248.747849 261.053101,255.490402 
	C261.275391,256.909546 261.820740,258.509949 261.401855,259.751770 
	C260.374939,262.796082 258.519470,265.578369 257.635406,268.649750 
	C255.876297,274.760986 258.515594,281.666718 252.536743,287.847687 
	C247.250671,289.106445 247.300980,289.090820 249.513672,296.212280 
	C249.995987,297.764587 249.910980,299.484558 250.203018,301.106415 
	C250.800797,304.426239 252.366150,306.655884 256.215424,306.087891 
	C256.187744,332.072449 256.209351,358.057312 256.038605,384.040924 
	C256.024994,386.113861 255.262802,388.751862 253.870422,390.160553 
	C231.857178,412.432068 209.683731,434.545227 186.862030,456.841919 
	C182.943787,456.114655 179.211945,450.314270 180.174652,447.537628 
	C180.360886,447.000519 180.966019,446.264923 181.433792,446.221375 
	C187.180496,445.686493 184.989166,441.458008 184.612869,438.684235 
	C183.880966,433.289276 182.190369,428.021027 181.520264,422.622894 
	C181.289337,420.762573 182.357513,418.004669 183.792404,416.808807 
	C188.528122,412.861877 189.153641,411.002319 186.042191,406.076416 
	C183.200867,401.578156 184.190308,397.551331 188.990799,395.081238 
	C190.796860,394.151917 192.895950,393.792084 195.796616,392.877930 
	C193.508682,390.554718 191.757095,388.776154 190.004089,386.622925 
	C190.004654,385.498840 190.006638,384.749420 190.354080,383.962036 
	C192.603622,382.394897 194.360153,380.611938 196.447723,379.398468 
	C199.292572,377.744812 199.589142,375.941193 199.327896,372.592468 
	C198.738327,365.034668 194.512375,357.832886 197.305542,349.846466 
	C198.922852,348.688354 200.381775,347.825928 201.516907,346.650726 
	C204.188477,343.884888 206.727783,340.989380 209.269440,338.101288 
	C209.908539,337.375061 210.564606,336.547272 210.856186,335.650238 
	C213.041107,328.928345 215.553558,322.270905 217.094315,315.398438 
	C217.938202,311.634277 217.098770,307.491486 217.007172,303.519714 
	C216.982544,302.451538 216.452301,301.050903 216.942108,300.368317 
	C221.760117,293.654114 219.140366,285.834259 219.486404,278.732941 
	C219.770554,272.901733 221.198883,267.455536 223.527954,262.954315 
	C226.073273,258.035156 226.057098,254.140396 224.722015,249.350357 
	C223.343796,244.405472 222.993347,239.554764 227.904739,235.803741 
	C229.112762,234.881119 229.512451,232.705505 229.961304,231.020035 
	C231.296555,226.006271 232.127686,220.831757 233.806000,215.943298 
	C235.465561,211.109436 235.312424,208.594055 230.482529,207.598618 
	C224.696274,206.406052 223.250717,202.574127 222.157410,197.698502 
	C224.561188,195.639282 226.807571,193.881577 228.342819,192.680283 
	C231.102753,192.812775 233.899826,192.947037 236.696899,193.081299 
z"/>
<path fill="#F7842D" opacity="1.000000" stroke="none" 
	d="
M410.592133,354.909851 
	C410.437866,332.124237 410.207916,309.338440 410.264008,286.553345 
	C410.268829,284.597015 411.779175,282.261719 413.254395,280.751160 
	C427.198761,266.472565 441.287354,252.334808 455.777344,238.330597 
	C459.185852,240.956757 461.800995,244.450546 465.206024,245.595596 
	C469.409058,247.009048 470.321625,249.255661 469.986176,252.903717 
	C469.367950,259.625977 468.700806,266.344238 467.990662,273.057495 
	C467.243683,280.118927 473.094452,283.611420 476.340759,288.497772 
	C476.658875,288.976532 477.880798,288.854828 478.683197,289.011841 
	C478.750488,289.759674 478.817810,290.507477 478.444031,291.616058 
	C476.638824,291.125702 475.167053,290.406860 473.929779,289.399902 
	C469.276123,285.612579 465.828857,286.167633 465.152100,291.926453 
	C464.481262,297.634644 465.939575,303.593048 466.508362,309.936005 
	C465.987396,310.881775 464.759399,312.586334 464.058228,314.485382 
	C462.208557,319.494995 465.007477,325.955566 459.279327,329.774261 
	C457.937073,339.344208 451.553070,348.257690 455.794830,358.612671 
	C456.522461,360.388947 455.988007,362.939270 455.403290,364.947693 
	C453.667755,370.908783 451.554688,376.759216 449.752533,382.702423 
	C449.474854,383.618195 450.077087,384.791992 450.239807,385.851471 
	C450.969391,390.601379 453.326294,395.860596 452.047180,399.992126 
	C449.804230,407.236694 450.054413,413.676544 451.818542,420.860809 
	C452.920441,425.348175 452.208130,430.674713 450.954834,435.253784 
	C449.108063,442.001190 445.618225,448.291077 443.655975,455.017334 
	C442.188110,460.048798 442.026428,465.461304 441.283142,470.704132 
	C441.851318,470.903687 442.419525,471.103210 442.987732,471.302734 
	C439.314667,474.228760 435.641632,477.154785 431.968567,480.080750 
	C419.978760,468.307068 407.988983,456.533386 396.164307,444.307587 
	C401.898376,440.877655 404.840729,433.536041 411.983276,434.358093 
	C411.983276,431.408630 411.387665,428.609192 412.099213,426.194946 
	C413.950287,419.914520 416.809753,413.912354 418.400085,407.581421 
	C419.283630,404.063965 418.596069,400.098633 418.324585,396.356384 
	C417.887787,390.334961 417.266357,384.324890 416.615234,378.321716 
	C416.075409,373.344910 413.976379,368.621735 416.537750,363.349304 
	C418.639679,359.022583 415.999268,355.896362 410.592133,354.909851 
z"/>
<path fill="#FAA62C" opacity="1.000000" stroke="none" 
	d="
M632.084961,221.578308 
	C630.790527,223.432266 628.345581,224.893600 628.327271,226.384781 
	C628.256531,232.133728 628.839905,237.904449 629.416748,243.643188 
	C629.856995,248.022003 631.680786,252.699783 625.351624,254.584000 
	C624.773865,254.755981 624.013916,256.533264 624.291870,257.014404 
	C626.669373,261.130157 624.396362,265.035156 624.133240,269.043854 
	C623.918274,272.319031 624.738281,275.649963 624.737000,278.956055 
	C624.736267,280.854675 624.589783,283.206238 623.515198,284.572205 
	C619.115540,290.165039 617.179749,296.426819 616.909180,303.431396 
	C616.842346,305.161346 615.661926,306.820343 615.245178,308.571869 
	C614.716797,310.792114 613.719299,313.262329 614.244568,315.281189 
	C614.918152,317.869904 614.221436,320.247070 614.395447,322.498688 
	C614.895508,328.968597 611.148010,331.807220 607.145996,335.743896 
	C600.828369,341.958435 599.735596,350.807709 599.042542,359.354858 
	C598.574341,365.128265 598.448242,370.779175 594.994019,375.976105 
	C594.000610,377.470795 595.595642,380.686005 596.107483,383.728241 
	C588.522461,387.869202 593.374939,396.401093 591.073242,402.933258 
	C589.781982,406.598053 589.700562,410.722656 588.202026,414.271973 
	C586.526550,418.240479 585.951904,421.779694 588.260010,425.566925 
	C590.388123,429.058868 591.776550,432.589478 590.170837,436.879425 
	C589.605530,438.389740 590.598694,440.426758 590.606445,442.224457 
	C590.613953,443.969635 590.311523,445.722168 590.065857,447.460236 
	C589.913635,448.536835 589.140259,449.763458 589.453613,450.630768 
	C592.167664,458.141937 588.546753,464.743469 586.635559,471.585449 
	C586.518127,472.006073 585.974060,472.307556 585.043884,472.581787 
	C583.634583,469.994537 584.279419,466.293396 580.229492,466.230713 
	C577.449158,466.187622 574.226013,466.095886 571.963440,467.374939 
	C567.589478,469.847351 564.960266,468.587128 562.646667,464.837830 
	C564.159607,461.711334 565.672546,458.584839 567.819275,455.186829 
	C572.008423,453.030426 572.315979,449.868652 571.806519,446.385681 
	C573.228455,442.724609 574.650391,439.063538 576.660034,435.132202 
	C579.203979,433.514313 580.880005,432.104614 578.375610,429.769165 
	C579.918396,425.073700 581.461243,420.378265 583.511169,415.277405 
	C585.971497,413.777679 586.915710,412.537567 584.602783,410.826813 
	C587.651062,394.564453 591.505432,378.402527 593.546997,362.014771 
	C596.205139,340.677551 595.865112,319.142181 592.369812,297.874359 
	C590.162048,284.440735 586.750916,271.204865 584.153320,257.250427 
	C584.316528,252.944031 584.317566,249.259705 584.061401,245.593353 
	C583.835938,242.366318 588.503174,236.595551 591.400696,237.400223 
	C595.601929,238.566956 595.746094,236.414398 596.064392,233.346725 
	C596.538635,228.775665 597.084778,224.152832 598.264038,219.728943 
	C599.777588,214.050980 602.390930,208.645370 603.645447,202.928207 
	C604.248962,200.177765 602.823364,196.982056 602.258728,193.645432 
	C596.279663,190.002014 595.741760,187.086090 599.451904,180.675125 
	C600.611755,178.670853 600.569885,175.950974 600.989075,173.543152 
	C601.538574,170.386581 600.933533,166.587204 605.537170,165.837082 
	C616.620178,183.215759 625.052124,201.863983 632.084961,221.578308 
z"/>
<path fill="#F78B2E" opacity="1.000000" stroke="none" 
	d="
M432.100616,480.372131 
	C435.641632,477.154785 439.314667,474.228760 442.987732,471.302734 
	C442.419525,471.103210 441.851318,470.903687 441.283142,470.704132 
	C442.026428,465.461304 442.188110,460.048798 443.655975,455.017334 
	C445.618225,448.291077 449.108063,442.001190 450.954834,435.253784 
	C452.208130,430.674713 452.920441,425.348175 451.818542,420.860809 
	C450.054413,413.676544 449.804230,407.236694 452.047180,399.992126 
	C453.326294,395.860596 450.969391,390.601379 450.239807,385.851471 
	C450.077087,384.791992 449.474854,383.618195 449.752533,382.702423 
	C451.554688,376.759216 453.667755,370.908783 455.403290,364.947693 
	C455.988007,362.939270 456.522461,360.388947 455.794830,358.612671 
	C451.553070,348.257690 457.937073,339.344208 459.279327,329.774261 
	C465.007477,325.955566 462.208557,319.494995 464.058228,314.485382 
	C464.759399,312.586334 465.987396,310.881775 466.508362,309.936005 
	C465.939575,303.593048 464.481262,297.634644 465.152100,291.926453 
	C465.828857,286.167633 469.276123,285.612579 473.929779,289.399902 
	C475.167053,290.406860 476.638824,291.125702 478.349335,291.982605 
	C478.769257,298.477661 478.902527,304.966827 478.906708,311.456085 
	C478.937256,358.936646 478.908966,406.417328 479.023193,453.897644 
	C479.031464,457.344391 478.043823,459.809814 475.572662,462.195892 
	C467.227753,470.253479 459.081757,478.517090 450.165894,486.844818 
	C445.329132,485.937927 441.416504,483.387970 436.857086,485.051056 
	C435.315613,483.588531 433.774109,482.126038 432.100616,480.372131 
z"/>
<path fill="#F46C31" opacity="1.000000" stroke="none" 
	d="
M331.532227,380.204865 
	C317.267670,366.054230 303.004395,351.902283 288.736816,337.754608 
	C286.968658,336.001312 285.177643,334.271088 283.499023,332.106445 
	C287.006622,327.332031 290.456024,323.014191 293.780701,318.602386 
	C294.431488,317.738800 294.811188,316.539062 294.955048,315.446838 
	C295.851990,308.638947 293.720703,301.304779 298.883026,295.230560 
	C300.070770,293.833008 300.687744,291.712708 300.953003,289.838104 
	C301.199738,288.094177 301.291046,285.263123 300.304199,284.588867 
	C295.273865,281.151947 295.794189,276.831146 297.028076,271.874298 
	C297.442169,270.210815 296.918152,267.802948 295.907257,266.390686 
	C292.787506,262.032104 293.200378,257.351898 297.531647,253.781021 
	C311.879242,268.006775 326.226868,282.232544 340.407043,296.901428 
	C338.950287,299.354401 336.333527,301.570038 336.607513,303.337646 
	C337.647278,310.046234 336.944977,316.877563 338.004974,323.412445 
	C338.816895,328.417969 342.307617,332.839508 342.132446,338.519073 
	C341.888794,346.418304 344.027435,354.702301 342.281555,362.150024 
	C340.757599,368.651001 335.269104,374.222626 331.532227,380.204865 
z"/>
<path fill="#F9A32E" opacity="1.000000" stroke="none" 
	d="
M562.405823,465.068481 
	C564.960266,468.587128 567.589478,469.847351 571.963440,467.374939 
	C574.226013,466.095886 577.449158,466.187622 580.229492,466.230713 
	C584.279419,466.293396 583.634583,469.994537 584.729614,472.749573 
	C585.000000,473.444458 585.000000,473.888885 584.684326,474.828125 
	C583.246338,477.584320 581.522705,479.744293 581.120605,482.127228 
	C580.128235,488.008820 583.001770,494.578064 576.172363,499.260986 
	C573.602539,501.023041 574.251892,504.882874 579.000000,505.000000 
	C579.473083,510.488159 579.307739,516.140808 580.663513,521.401489 
	C581.451172,524.457764 584.680786,526.884644 586.964478,529.915955 
	C574.012329,545.210693 560.979980,560.248901 547.746643,575.108093 
	C544.783386,578.435425 541.115845,581.135559 537.415527,583.772461 
	C536.453430,578.703674 535.838745,573.988037 535.245728,569.269653 
	C534.599976,564.132141 532.469543,559.041809 535.679260,553.859680 
	C536.400452,552.695251 535.573975,550.371094 535.073608,548.696228 
	C534.230164,545.873352 533.302673,543.030640 531.993835,540.403931 
	C530.608582,537.623718 528.757935,535.072327 527.072083,532.445740 
	C525.090576,529.358643 523.067688,526.298218 521.062744,523.226196 
	C522.817200,521.179993 524.571716,519.133728 526.691345,517.280029 
	C528.418030,517.691956 529.779541,517.911377 531.140991,518.130798 
	C531.322449,515.864990 531.503906,513.599182 531.685303,511.333374 
	C540.045105,499.156708 548.454163,487.013306 556.729553,474.779602 
	C558.764954,471.770691 560.364868,468.467224 562.405823,465.068481 
z"/>
<path fill="#F67F2F" opacity="1.000000" stroke="none" 
	d="
M417.142029,650.442383 
	C416.619507,650.655762 416.097015,650.869141 415.226624,650.696411 
	C409.290619,647.549255 414.606354,642.024963 412.691071,638.333191 
	C412.177124,638.353455 411.663147,638.373718 411.149200,638.393982 
	C410.429108,643.177490 409.709015,647.960938 408.988953,652.744446 
	C387.749664,658.770874 366.097260,662.172974 343.516296,662.509399 
	C343.538605,659.995117 343.934357,657.886169 344.674469,655.905945 
	C345.115936,654.724670 346.633179,653.799072 346.746613,652.666382 
	C347.328705,646.853577 347.423615,640.990173 348.061829,635.185425 
	C348.541534,630.822449 349.642975,626.530823 350.343658,622.187378 
	C350.569763,620.785706 350.860748,619.117126 350.331024,617.920898 
	C348.455963,613.686523 346.270569,609.602661 349.991425,605.267944 
	C370.428101,602.995972 390.598389,599.398376 410.706970,593.508545 
	C413.382233,595.251038 417.156677,596.346863 417.493927,598.102844 
	C418.402618,602.833923 417.850220,607.846619 417.868164,612.747498 
	C417.878448,615.547729 417.870056,618.348022 417.870056,621.676147 
	C417.587891,623.098022 416.155060,625.797729 416.964935,627.071716 
	C419.559540,631.152954 420.348999,635.085022 419.072113,639.742126 
	C418.117615,643.223572 417.763458,646.869629 417.142029,650.442383 
z"/>
<path fill="#F8962E" opacity="1.000000" stroke="none" 
	d="
M520.771851,523.367554 
	C523.067688,526.298218 525.090576,529.358643 527.072083,532.445740 
	C528.757935,535.072327 530.608582,537.623718 531.993835,540.403931 
	C533.302673,543.030640 534.230164,545.873352 535.073608,548.696228 
	C535.573975,550.371094 536.400452,552.695251 535.679260,553.859680 
	C532.469543,559.041809 534.599976,564.132141 535.245728,569.269653 
	C535.838745,573.988037 536.453430,578.703674 537.097778,583.910645 
	C518.905212,601.029297 498.489563,614.489746 476.382812,625.672485 
	C476.915436,623.585388 477.846039,621.869324 478.702728,620.117065 
	C479.423004,618.643799 480.911896,616.884277 480.567291,615.678101 
	C479.580811,612.225525 478.583405,608.273743 476.232758,605.817383 
	C471.262024,600.622925 472.278046,595.621399 474.914734,590.133728 
	C475.320740,589.288757 475.497040,588.333496 475.809265,587.334167 
	C471.958557,584.997253 470.770569,582.278259 471.597290,577.664673 
	C472.262787,573.950745 470.435913,569.790161 469.714905,565.827759 
	C482.154724,556.163818 494.727264,546.663757 506.968994,536.755005 
	C511.849426,532.804749 515.998840,527.951294 520.771851,523.367554 
z"/>
<path fill="#F5742F" opacity="1.000000" stroke="none" 
	d="
M331.704437,380.501648 
	C335.269104,374.222626 340.757599,368.651001 342.281555,362.150024 
	C344.027435,354.702301 341.888794,346.418304 342.132446,338.519073 
	C342.307617,332.839508 338.816895,328.417969 338.004974,323.412445 
	C336.944977,316.877563 337.647278,310.046234 336.607513,303.337646 
	C336.333527,301.570038 338.950287,299.354401 340.545776,297.197693 
	C355.795441,311.835388 370.738953,326.619934 385.460754,341.696045 
	C384.206146,341.533752 383.086945,341.211578 382.156158,340.601837 
	C379.099609,338.599396 376.002808,339.481415 375.698517,343.052887 
	C375.494263,345.450256 376.330261,348.464386 377.833557,350.247620 
	C378.543610,351.089874 381.975861,349.894287 384.056580,349.244141 
	C385.780884,348.705322 387.331970,347.612305 388.959808,346.764801 
	C386.603180,352.302734 384.037262,356.933289 381.090363,361.307159 
	C376.895203,367.533783 376.411987,373.737579 380.199524,380.287140 
	C380.624481,381.021942 380.422852,382.128510 380.480804,383.064575 
	C380.855865,389.123413 381.274384,395.180389 381.552429,401.243774 
	C381.616028,402.630768 381.557251,404.252045 380.905853,405.396057 
	C379.501648,407.862335 377.578766,410.026794 376.049683,412.430267 
	C374.447937,414.947906 373.058746,417.600769 371.576599,420.194550 
	C360.091949,408.824799 348.605286,397.457062 337.124664,386.083191 
	C335.361084,384.335999 333.625305,382.560699 331.704437,380.501648 
z"/>
<path fill="#F36333" opacity="1.000000" stroke="none" 
	d="
M323.956726,64.236603 
	C311.379578,65.452354 298.788818,66.546005 286.231842,67.943184 
	C281.118530,68.512138 276.078491,69.740082 270.546997,70.214180 
	C270.670135,63.697872 271.251373,57.635578 271.846466,51.428909 
	C267.391541,50.005085 263.649323,43.835361 264.178162,38.754066 
	C264.683838,33.895370 264.948425,28.987713 264.886566,24.107061 
	C264.865570,22.451391 263.503021,19.411087 262.793518,19.422813 
	C260.460449,19.461361 258.086639,20.463560 255.841232,21.373669 
	C253.775497,22.210957 251.641510,24.534750 249.916565,24.207312 
	C246.509399,23.560543 241.821411,23.389431 241.952652,17.862301 
	C259.679565,14.264086 277.375153,10.498619 295.152008,7.166843 
	C300.678375,6.131083 306.424957,6.270555 312.691467,6.156395 
	C314.207367,6.239610 315.102539,6.038434 315.997711,5.837255 
	C322.350128,5.618265 328.702515,5.399276 335.386169,5.626964 
	C331.972321,6.591856 328.227203,7.110071 324.387390,7.641388 
	C327.008942,13.856119 326.459106,22.828897 323.549011,29.044167 
	C322.643250,30.978609 321.528870,33.506592 322.068848,35.291210 
	C323.438965,39.819592 326.218781,43.947121 327.375549,48.503883 
	C327.982056,50.893070 327.248260,55.095207 325.565887,56.289120 
	C321.956207,58.850811 321.890686,61.052677 323.956726,64.236603 
z"/>
<path fill="#F36333" opacity="1.000000" stroke="none" 
	d="
M297.348755,253.485504 
	C293.200378,257.351898 292.787506,262.032104 295.907257,266.390686 
	C296.918152,267.802948 297.442169,270.210815 297.028076,271.874298 
	C295.794189,276.831146 295.273865,281.151947 300.304199,284.588867 
	C301.291046,285.263123 301.199738,288.094177 300.953003,289.838104 
	C300.687744,291.712708 300.070770,293.833008 298.883026,295.230560 
	C293.720703,301.304779 295.851990,308.638947 294.955048,315.446838 
	C294.811188,316.539062 294.431488,317.738800 293.780701,318.602386 
	C290.456024,323.014191 287.006622,327.332031 283.293030,331.845062 
	C275.265533,324.177094 267.554596,316.338135 259.814331,308.528198 
	C258.924438,307.630280 257.871094,306.894318 256.554504,306.085571 
	C252.366150,306.655884 250.800797,304.426239 250.203018,301.106415 
	C249.910980,299.484558 249.995987,297.764587 249.513672,296.212280 
	C247.300980,289.090820 247.250671,289.106445 252.536743,287.847687 
	C258.515594,281.666718 255.876297,274.760986 257.635406,268.649750 
	C258.519470,265.578369 260.374939,262.796082 261.401855,259.751770 
	C261.820740,258.509949 261.275391,256.909546 261.053101,255.490402 
	C259.997009,248.747849 257.079865,241.943222 261.225891,236.934830 
	C259.399933,232.336304 257.909576,228.924438 256.693176,225.417557 
	C255.611145,222.298126 256.049957,218.816544 252.394409,216.538269 
	C249.905624,214.987167 250.297867,212.182236 254.065765,210.892044 
	C268.696320,224.940903 282.931091,239.065445 297.348755,253.485504 
M296.653351,287.211761 
	C296.345459,286.611450 296.037567,286.011108 295.729645,285.410797 
	C295.288788,285.846741 294.847931,286.282654 294.407074,286.718597 
	C295.002991,287.033752 295.598907,287.348877 296.653351,287.211761 
z"/>
<path fill="#F78A2E" opacity="1.000000" stroke="none" 
	d="
M469.385803,565.910278 
	C470.435913,569.790161 472.262787,573.950745 471.597290,577.664673 
	C470.770569,582.278259 471.958557,584.997253 475.809265,587.334167 
	C475.497040,588.333496 475.320740,589.288757 474.914734,590.133728 
	C472.278046,595.621399 471.262024,600.622925 476.232758,605.817383 
	C478.583405,608.273743 479.580811,612.225525 480.567291,615.678101 
	C480.911896,616.884277 479.423004,618.643799 478.702728,620.117065 
	C477.846039,621.869324 476.915436,623.585388 476.027222,625.729614 
	C457.653351,636.573547 438.167114,644.358765 417.535706,650.390808 
	C417.763458,646.869629 418.117615,643.223572 419.072113,639.742126 
	C420.348999,635.085022 419.559540,631.152954 416.964935,627.071716 
	C416.155060,625.797729 417.587891,623.098022 417.870056,621.676147 
	C417.870056,618.348022 417.878448,615.547729 417.868164,612.747498 
	C417.850220,607.846619 418.402618,602.833923 417.493927,598.102844 
	C417.156677,596.346863 413.382233,595.251038 411.086731,593.505066 
	C424.723175,587.558350 438.578125,582.252747 452.113525,576.229126 
	C458.095093,573.567139 463.428833,569.449585 469.385803,565.910278 
z"/>
<path fill="#F57230" opacity="1.000000" stroke="none" 
	d="
M349.549438,605.195740 
	C346.270569,609.602661 348.455963,613.686523 350.331024,617.920898 
	C350.860748,619.117126 350.569763,620.785706 350.343658,622.187378 
	C349.642975,626.530823 348.541534,630.822449 348.061829,635.185425 
	C347.423615,640.990173 347.328705,646.853577 346.746613,652.666382 
	C346.633179,653.799072 345.115936,654.724670 344.674469,655.905945 
	C343.934357,657.886169 343.538605,659.995117 343.093750,662.442627 
	C321.648682,664.155579 300.222137,663.139954 278.916260,659.680481 
	C277.122437,659.389221 275.337219,659.045044 273.252594,658.058289 
	C272.440643,653.498535 273.707153,651.717041 278.061371,651.799072 
	C280.728424,651.849365 284.046387,651.496460 284.476471,647.249329 
	C284.994232,642.136230 287.987549,639.315796 293.293732,638.895630 
	C295.975830,638.683228 297.050354,637.334961 296.719025,634.152283 
	C296.212067,629.282593 296.825348,624.306274 296.648041,619.386536 
	C296.590027,617.777649 295.899933,615.109558 294.903351,614.791443 
	C288.278900,612.676697 288.542389,608.095886 290.006348,602.866394 
	C309.643280,605.279846 329.306488,607.006042 349.549438,605.195740 
z"/>
<path fill="#F67C2D" opacity="1.000000" stroke="none" 
	d="
M371.756897,420.488312 
	C373.058746,417.600769 374.447937,414.947906 376.049683,412.430267 
	C377.578766,410.026794 379.501648,407.862335 380.905853,405.396057 
	C381.557251,404.252045 381.616028,402.630768 381.552429,401.243774 
	C381.274384,395.180389 380.855865,389.123413 380.480804,383.064575 
	C380.422852,382.128510 380.624481,381.021942 380.199524,380.287140 
	C376.411987,373.737579 376.895203,367.533783 381.090363,361.307159 
	C384.037262,356.933289 386.603180,352.302734 388.959808,346.764801 
	C387.331970,347.612305 385.780884,348.705322 384.056580,349.244141 
	C381.975861,349.894287 378.543610,351.089874 377.833557,350.247620 
	C376.330261,348.464386 375.494263,345.450256 375.698517,343.052887 
	C376.002808,339.481415 379.099609,338.599396 382.156158,340.601837 
	C383.086945,341.211578 384.206146,341.533752 385.609192,341.994873 
	C393.764374,349.506409 401.549316,357.010742 410.311096,365.456696 
	C410.311096,361.415100 410.311096,358.528595 410.451599,355.275970 
	C415.999268,355.896362 418.639679,359.022583 416.537750,363.349304 
	C413.976379,368.621735 416.075409,373.344910 416.615234,378.321716 
	C417.266357,384.324890 417.887787,390.334961 418.324585,396.356384 
	C418.596069,400.098633 419.283630,404.063965 418.400085,407.581421 
	C416.809753,413.912354 413.950287,419.914520 412.099213,426.194946 
	C411.387665,428.609192 411.983276,431.408630 411.983276,434.358093 
	C404.840729,433.536041 401.898376,440.877655 395.998596,444.009094 
	C387.757568,436.369141 379.847382,428.575623 371.756897,420.488312 
z"/>
<path fill="#F25936" opacity="1.000000" stroke="none" 
	d="
M188.842194,630.726074 
	C174.683182,622.423401 160.439087,614.260986 146.408554,605.746643 
	C141.065048,602.503967 136.211838,598.453369 131.074631,594.727112 
	C145.177826,580.685974 158.941589,566.982727 172.835785,553.149658 
	C181.543869,558.709595 190.458954,564.401611 199.275131,570.476318 
	C199.032455,570.941101 198.824112,570.986877 198.754303,571.110718 
	C196.892471,574.413330 193.351898,577.858276 193.601074,581.001160 
	C193.954010,585.452515 198.504196,583.777344 201.716705,583.163818 
	C202.297195,583.052917 203.526199,583.729309 203.608917,584.193237 
	C203.756439,585.020752 203.326172,585.987976 203.015427,586.852905 
	C202.384537,588.608826 201.536789,590.296143 201.017075,592.081177 
	C198.824051,599.613464 197.897217,607.820923 194.207520,614.513550 
	C191.271301,619.839661 189.244522,624.848938 188.842194,630.726074 
z"/>
<path fill="#F36333" opacity="1.000000" stroke="none" 
	d="
M189.096832,630.913391 
	C189.244522,624.848938 191.271301,619.839661 194.207520,614.513550 
	C197.897217,607.820923 198.824051,599.613464 201.017075,592.081177 
	C201.536789,590.296143 202.384537,588.608826 203.015427,586.852905 
	C203.326172,585.987976 203.756439,585.020752 203.608917,584.193237 
	C203.526199,583.729309 202.297195,583.052917 201.716705,583.163818 
	C198.504196,583.777344 193.954010,585.452515 193.601074,581.001160 
	C193.351898,577.858276 196.892471,574.413330 198.754303,571.110718 
	C198.824112,570.986877 199.032455,570.941101 199.573578,570.693665 
	C216.843750,578.207947 233.713699,585.893921 250.602249,593.538757 
	C251.153793,593.788452 251.894974,593.619141 252.625519,594.152405 
	C251.146057,598.444031 248.239578,602.255432 248.314606,606.007141 
	C248.467377,613.647400 245.874802,620.225098 242.861816,626.783997 
	C240.459045,632.014404 239.000214,638.057922 232.030029,639.848633 
	C230.288239,640.296143 229.100220,642.899109 227.666245,644.501892 
	C231.281815,646.574951 234.139725,648.213562 236.997650,649.852234 
	C221.115601,643.601685 205.233536,637.351196 189.096832,630.913391 
z"/>
<path fill="#F04B39" opacity="1.000000" stroke="none" 
	d="
M77.652626,541.295776 
	C80.258583,537.016357 78.358292,534.282166 75.174110,531.699585 
	C73.530426,530.366516 72.215111,528.628601 70.210754,526.499146 
	C79.143730,523.546265 79.581367,516.999939 80.293480,510.151947 
	C80.935989,503.973389 82.719109,497.913452 84.361862,491.325256 
	C86.149796,487.233704 87.575050,483.618073 89.160744,479.698212 
	C90.547966,478.929321 91.774750,478.464661 93.355446,477.959106 
	C95.186607,475.839905 96.663857,473.761627 98.141098,471.683319 
	C98.802094,472.405273 99.463089,473.127228 100.710899,474.490112 
	C104.903793,470.122437 108.999649,465.855835 113.470795,461.834717 
	C115.334892,464.107574 116.972198,466.044525 118.275757,468.184723 
	C119.988113,470.996185 121.605408,473.893494 122.936150,476.898865 
	C123.711349,478.649597 123.868294,480.679230 124.265350,482.591278 
	C125.158859,486.893982 127.362091,491.463593 126.580269,495.442841 
	C125.535248,500.761780 122.451492,505.785248 119.708183,510.632782 
	C117.455605,514.613220 118.769905,519.692139 123.048813,521.013611 
	C111.607414,531.874084 100.166016,542.734558 88.275444,554.021362 
	C85.373825,550.584900 81.569099,546.078918 77.652626,541.295776 
z"/>
<path fill="#F46E32" opacity="1.000000" stroke="none" 
	d="
M324.406860,64.386398 
	C321.890686,61.052677 321.956207,58.850811 325.565887,56.289120 
	C327.248260,55.095207 327.982056,50.893070 327.375549,48.503883 
	C326.218781,43.947121 323.438965,39.819592 322.068848,35.291210 
	C321.528870,33.506592 322.643250,30.978609 323.549011,29.044167 
	C326.459106,22.828897 327.008942,13.856119 324.387390,7.641388 
	C328.227203,7.110071 331.972321,6.591856 335.844604,5.716541 
	C348.738373,6.487478 361.504974,7.615514 374.634766,9.329039 
	C375.353485,11.845494 375.790527,13.765774 376.045471,15.709930 
	C376.429749,18.640369 377.162811,21.629429 376.908203,24.519629 
	C376.158020,33.035736 375.250549,41.557571 373.861908,49.987762 
	C373.341278,53.148357 371.263916,56.037338 370.010925,59.097073 
	C368.922241,61.755604 367.995148,64.480316 366.996643,67.175781 
	C352.950104,66.295921 338.903534,65.416054 324.406860,64.386398 
z"/>
<path fill="#F15935" opacity="1.000000" stroke="none" 
	d="
M241.558197,17.872559 
	C241.821411,23.389431 246.509399,23.560543 249.916565,24.207312 
	C251.641510,24.534750 253.775497,22.210957 255.841232,21.373669 
	C258.086639,20.463560 260.460449,19.461361 262.793518,19.422813 
	C263.503021,19.411087 264.865570,22.451391 264.886566,24.107061 
	C264.948425,28.987713 264.683838,33.895370 264.178162,38.754066 
	C263.649323,43.835361 267.391541,50.005085 271.846466,51.428909 
	C271.251373,57.635578 270.670135,63.697872 270.112732,70.221405 
	C253.125671,76.103798 236.114807,81.524963 218.420746,86.913712 
	C217.336594,85.925438 216.317444,84.491104 216.629898,84.087372 
	C219.921829,79.833969 217.798996,75.124542 217.932022,70.642853 
	C217.979889,69.030052 216.576691,66.448288 217.197571,65.925171 
	C222.070343,61.819832 219.809860,57.401981 218.829742,52.590923 
	C218.038666,48.707664 219.120544,44.480412 218.928238,40.426792 
	C218.744553,36.554665 218.726700,32.364838 213.421585,31.284958 
	C212.120926,31.020205 211.050964,29.622166 209.874939,28.745157 
	C220.304535,25.124378 230.734131,21.503597 241.558197,17.872559 
z"/>
<path fill="#F36931" opacity="1.000000" stroke="none" 
	d="
M237.336029,650.031616 
	C234.139725,648.213562 231.281815,646.574951 227.666245,644.501892 
	C229.100220,642.899109 230.288239,640.296143 232.030029,639.848633 
	C239.000214,638.057922 240.459045,632.014404 242.861816,626.783997 
	C245.874802,620.225098 248.467377,613.647400 248.314606,606.007141 
	C248.239578,602.255432 251.146057,598.444031 252.846100,594.339844 
	C265.104004,596.841003 277.219055,599.661987 289.670227,602.674683 
	C288.542389,608.095886 288.278900,612.676697 294.903351,614.791443 
	C295.899933,615.109558 296.590027,617.777649 296.648041,619.386536 
	C296.825348,624.306274 296.212067,629.282593 296.719025,634.152283 
	C297.050354,637.334961 295.975830,638.683228 293.293732,638.895630 
	C287.987549,639.315796 284.994232,642.136230 284.476471,647.249329 
	C284.046387,651.496460 280.728424,651.849365 278.061371,651.799072 
	C273.707153,651.717041 272.440643,653.498535 272.929016,657.845825 
	C262.106537,655.907043 251.310745,653.520142 240.520523,651.108337 
	C239.553299,650.892090 238.622253,650.513855 237.336029,650.031616 
z"/>
<path fill="#F9982C" opacity="1.000000" stroke="none" 
	d="
M564.582214,208.190704 
	C563.853027,206.203568 563.123840,204.216431 562.044128,201.273956 
	C554.642517,208.428482 547.489624,215.342560 539.674316,222.124054 
	C537.889771,219.126465 536.361755,216.346024 535.743042,213.376144 
	C534.866333,209.168365 534.360718,204.821579 534.351135,200.532745 
	C534.348328,199.257858 537.061157,198.165771 537.608887,196.655914 
	C538.401428,194.471375 539.146179,191.736618 538.504150,189.674744 
	C537.138977,185.290207 534.984314,181.130081 532.937134,176.984695 
	C530.349365,171.744766 530.518372,171.240677 536.302979,171.033752 
	C538.871765,170.941849 541.575134,170.566574 540.839600,167.424530 
	C540.060242,164.095078 538.126709,161.035782 536.697266,157.858490 
	C547.495850,147.089294 558.294373,136.320099 569.473877,125.852966 
	C569.903992,127.103561 569.953186,128.052094 570.071899,129.368835 
	C571.688049,130.489899 573.264282,131.930267 574.775879,131.865311 
	C579.132690,131.678070 580.081604,133.686401 580.123047,137.596207 
	C580.154297,140.555481 580.505615,144.090408 582.143433,146.319092 
	C584.653503,149.734604 584.434326,152.516312 582.051880,155.257095 
	C580.014221,157.601257 577.531555,159.633316 574.993469,161.451385 
	C570.452881,164.703857 569.235718,178.288391 573.310547,182.124557 
	C578.343811,186.863098 578.339478,186.856476 572.500793,190.725815 
	C569.214661,192.903595 565.611511,195.495300 567.649719,199.850403 
	C569.712952,204.258942 568.070679,206.321716 564.582214,208.190704 
z"/>
<path fill="#F15337" opacity="1.000000" stroke="none" 
	d="
M123.350906,520.877014 
	C118.769905,519.692139 117.455605,514.613220 119.708183,510.632782 
	C122.451492,505.785248 125.535248,500.761780 126.580269,495.442841 
	C127.362091,491.463593 125.158859,486.893982 124.265350,482.591278 
	C123.868294,480.679230 123.711349,478.649597 122.936150,476.898865 
	C121.605408,473.893494 119.988113,470.996185 118.275757,468.184723 
	C116.972198,466.044525 115.334892,464.107574 113.776039,461.658051 
	C125.922623,448.886017 138.139236,436.536133 150.823914,424.418884 
	C153.262436,426.167450 155.018906,428.239502 157.243332,429.095612 
	C164.052948,431.716400 169.515488,438.345398 166.520050,442.761536 
	C163.222672,447.622803 163.861847,452.082245 163.892380,457.001923 
	C163.902222,458.590271 162.891449,460.158386 162.606979,461.781250 
	C162.167374,464.288971 162.277496,466.931976 161.566788,469.344513 
	C160.357178,473.450653 158.765976,477.451904 157.192734,481.441071 
	C155.911118,484.690674 154.421326,487.858185 153.023834,491.062103 
	C152.977875,491.405304 152.810318,491.672180 151.910889,491.942383 
	C150.205826,493.362366 149.111038,494.702637 148.016235,496.042908 
	C139.895157,504.275391 131.774078,512.507935 123.350906,520.877014 
z"/>
<path fill="#F05136" opacity="1.000000" stroke="none" 
	d="
M209.555573,28.765175 
	C211.050964,29.622166 212.120926,31.020205 213.421585,31.284958 
	C218.726700,32.364838 218.744553,36.554665 218.928238,40.426792 
	C219.120544,44.480412 218.038666,48.707664 218.829742,52.590923 
	C219.809860,57.401981 222.070343,61.819832 217.197571,65.925171 
	C216.576691,66.448288 217.979889,69.030052 217.932022,70.642853 
	C217.798996,75.124542 219.921829,79.833969 216.629898,84.087372 
	C216.317444,84.491104 217.336594,85.925438 218.077164,87.034012 
	C209.491013,91.882484 200.498322,96.456810 191.666245,101.322601 
	C186.881393,103.958672 182.370300,107.091637 177.334595,109.671188 
	C175.966721,104.188133 174.944534,99.043617 174.078079,93.873009 
	C173.895920,92.785896 173.980118,91.448936 174.463058,90.489624 
	C177.146576,85.159256 175.990540,80.213814 174.171707,74.819084 
	C173.002884,71.352303 172.898453,66.793968 174.151443,63.402714 
	C176.444489,57.196487 179.149033,51.390167 175.922577,44.796272 
	C183.693771,40.849121 191.464966,36.901970 199.656769,33.262680 
	C201.345551,34.180885 202.613724,34.791222 203.881882,35.401558 
	C204.525543,33.737652 205.169220,32.073750 205.812897,30.409847 
	C206.954010,29.868296 208.095108,29.326744 209.555573,28.765175 
z"/>
<path fill="#F99F2D" opacity="1.000000" stroke="none" 
	d="
M564.684753,208.550735 
	C568.070679,206.321716 569.712952,204.258942 567.649719,199.850403 
	C565.611511,195.495300 569.214661,192.903595 572.500793,190.725815 
	C578.339478,186.856476 578.343811,186.863098 573.310547,182.124557 
	C569.235718,178.288391 570.452881,164.703857 574.993469,161.451385 
	C577.531555,159.633316 580.014221,157.601257 582.051880,155.257095 
	C584.434326,152.516312 584.653503,149.734604 582.143433,146.319092 
	C580.505615,144.090408 580.154297,140.555481 580.123047,137.596207 
	C580.081604,133.686401 579.132690,131.678070 574.775879,131.865311 
	C573.264282,131.930267 571.688049,130.489899 570.461914,129.417542 
	C573.762451,128.952408 576.742371,128.806808 579.722351,128.661194 
	C588.245544,140.822937 596.768738,152.984680 605.414551,165.491760 
	C600.933533,166.587204 601.538574,170.386581 600.989075,173.543152 
	C600.569885,175.950974 600.611755,178.670853 599.451904,180.675125 
	C595.741760,187.086090 596.279663,190.002014 602.258728,193.645432 
	C602.823364,196.982056 604.248962,200.177765 603.645447,202.928207 
	C602.390930,208.645370 599.777588,214.050980 598.264038,219.728943 
	C597.084778,224.152832 596.538635,228.775665 596.064392,233.346725 
	C595.746094,236.414398 595.601929,238.566956 591.400696,237.400223 
	C588.503174,236.595551 583.835938,242.366318 584.061401,245.593353 
	C584.317566,249.259705 584.316528,252.944031 584.139893,256.846619 
	C577.497437,241.018753 571.142334,224.964767 564.684753,208.550735 
z"/>
<path fill="#F7822E" opacity="1.000000" stroke="none" 
	d="
M437.057251,24.788750 
	C452.395050,31.591488 467.742645,38.372311 483.054810,45.232227 
	C484.522156,45.889587 485.768677,47.039787 486.982178,48.672325 
	C486.330353,52.063370 484.733307,55.126530 485.519836,57.344440 
	C487.223785,62.149536 487.889832,66.741486 487.085388,71.748093 
	C486.756134,73.797241 487.679077,76.025414 487.493042,78.124344 
	C487.097839,82.582329 486.826202,87.146065 485.601471,91.407089 
	C484.532013,95.128006 482.446838,98.628975 480.395569,101.972588 
	C478.796112,104.579674 476.559540,106.795891 474.606079,109.185806 
	C464.542084,103.430336 454.478058,97.674866 444.204834,91.229950 
	C444.988892,86.390045 446.112335,82.265076 446.932220,78.080635 
	C447.533051,75.014038 447.982910,71.873421 448.034119,68.758141 
	C448.072571,66.419121 446.496948,64.022896 449.555206,62.199337 
	C450.182678,61.825222 450.016083,59.254375 449.498413,57.989601 
	C448.041626,54.430378 444.926025,51.585033 446.549835,46.948303 
	C447.746582,43.531189 448.090179,39.746761 448.307343,36.095863 
	C448.374695,34.963921 446.825378,32.746479 445.941132,32.706993 
	C439.972504,32.440514 438.033783,30.900517 437.057251,24.788750 
z"/>
<path fill="#F8912D" opacity="1.000000" stroke="none" 
	d="
M536.407776,158.005264 
	C538.126709,161.035782 540.060242,164.095078 540.839600,167.424530 
	C541.575134,170.566574 538.871765,170.941849 536.302979,171.033752 
	C530.518372,171.240677 530.349365,171.744766 532.937134,176.984695 
	C534.984314,181.130081 537.138977,185.290207 538.504150,189.674744 
	C539.146179,191.736618 538.401428,194.471375 537.608887,196.655914 
	C537.061157,198.165771 534.348328,199.257858 534.351135,200.532745 
	C534.360718,204.821579 534.866333,209.168365 535.743042,213.376144 
	C536.361755,216.346024 537.889771,219.126465 539.374512,222.244415 
	C530.016541,232.390259 520.304016,242.291199 510.570740,252.171600 
	C507.322601,255.468811 504.021271,258.713593 500.285889,261.806915 
	C499.012329,260.593323 497.510132,259.563354 497.497803,258.515747 
	C497.434998,253.202301 496.481598,247.410004 498.239319,242.676315 
	C501.045288,235.119690 501.311096,227.977539 498.936859,220.622192 
	C497.945892,217.552261 498.339142,215.919449 501.154205,214.150116 
	C506.810547,210.594910 507.480469,208.854919 504.642883,202.738693 
	C502.538239,198.202194 504.409210,194.872955 506.282135,191.213547 
	C507.230194,189.361084 508.002380,187.418610 508.854065,185.516815 
	C517.942139,176.395233 527.030212,167.273636 536.407776,158.005264 
z"/>
<path fill="#F78B2E" opacity="1.000000" stroke="none" 
	d="
M508.546326,185.683289 
	C508.002380,187.418610 507.230194,189.361084 506.282135,191.213547 
	C504.409210,194.872955 502.538239,198.202194 504.642883,202.738693 
	C507.480469,208.854919 506.810547,210.594910 501.154205,214.150116 
	C498.339142,215.919449 497.945892,217.552261 498.936859,220.622192 
	C501.311096,227.977539 501.045288,235.119690 498.239319,242.676315 
	C496.481598,247.410004 497.434998,253.202301 497.497803,258.515747 
	C497.510132,259.563354 499.012329,260.593323 499.987427,261.971985 
	C494.987091,267.364105 489.750549,272.340973 484.695709,277.495941 
	C481.778564,280.470856 478.179535,283.208374 478.784363,288.608521 
	C477.880798,288.854828 476.658875,288.976532 476.340759,288.497772 
	C473.094452,283.611420 467.243683,280.118927 467.990662,273.057495 
	C468.700806,266.344238 469.367950,259.625977 469.986176,252.903717 
	C470.321625,249.255661 469.409058,247.009048 465.206024,245.595596 
	C461.800995,244.450546 459.185852,240.956757 456.077148,238.175018 
	C473.368835,220.513443 490.803741,203.181595 508.546326,185.683289 
z"/>
<path fill="#F5742F" opacity="1.000000" stroke="none" 
	d="
M367.187927,67.296707 
	C367.995148,64.480316 368.922241,61.755604 370.010925,59.097073 
	C371.263916,56.037338 373.341278,53.148357 373.861908,49.987762 
	C375.250549,41.557571 376.158020,33.035736 376.908203,24.519629 
	C377.162811,21.629429 376.429749,18.640369 376.045471,15.709930 
	C375.790527,13.765774 375.353485,11.845494 374.996765,9.508636 
	C384.781799,10.948814 394.568024,12.794884 404.750793,15.204071 
	C406.215088,16.137865 407.282837,16.508541 408.350555,16.879219 
	C408.723999,16.893486 409.097443,16.907751 409.690613,17.370136 
	C408.021515,20.906399 408.035645,23.582428 411.279205,25.896601 
	C412.110504,26.489729 412.791626,27.793610 412.891052,28.833166 
	C413.682465,37.110992 414.620544,45.395992 414.834442,53.696293 
	C414.908783,56.581882 413.234772,59.583473 412.071716,62.413921 
	C410.172150,67.036819 408.036804,71.562828 406.000946,76.129715 
	C394.579590,73.473167 383.158234,70.816628 371.299530,67.688980 
	C369.851807,67.276283 368.841461,67.334709 367.831085,67.393135 
	C367.831085,67.393135 367.379181,67.417648 367.187927,67.296707 
z"/>
<path fill="#F67C2D" opacity="1.000000" stroke="none" 
	d="
M406.310516,76.310379 
	C408.036804,71.562828 410.172150,67.036819 412.071716,62.413921 
	C413.234772,59.583473 414.908783,56.581882 414.834442,53.696293 
	C414.620544,45.395992 413.682465,37.110992 412.891052,28.833166 
	C412.791626,27.793610 412.110504,26.489729 411.279205,25.896601 
	C408.035645,23.582428 408.021515,20.906399 409.953278,17.475384 
	C418.839996,19.532038 427.683838,21.931564 436.792450,24.559923 
	C438.033783,30.900517 439.972504,32.440514 445.941132,32.706993 
	C446.825378,32.746479 448.374695,34.963921 448.307343,36.095863 
	C448.090179,39.746761 447.746582,43.531189 446.549835,46.948303 
	C444.926025,51.585033 448.041626,54.430378 449.498413,57.989601 
	C450.016083,59.254375 450.182678,61.825222 449.555206,62.199337 
	C446.496948,64.022896 448.072571,66.419121 448.034119,68.758141 
	C447.982910,71.873421 447.533051,75.014038 446.932220,78.080635 
	C446.112335,82.265076 444.988892,86.390045 443.980652,91.001129 
	C431.517181,86.471519 419.068634,81.481285 406.310516,76.310379 
z"/>
<path fill="#EF4A3A" opacity="1.000000" stroke="none" 
	d="
M175.567886,44.852417 
	C179.149033,51.390167 176.444489,57.196487 174.151443,63.402714 
	C172.898453,66.793968 173.002884,71.352303 174.171707,74.819084 
	C175.990540,80.213814 177.146576,85.159256 174.463058,90.489624 
	C173.980118,91.448936 173.895920,92.785896 174.078079,93.873009 
	C174.944534,99.043617 175.966721,104.188133 176.996246,109.762421 
	C166.730057,118.432358 156.401077,126.681816 145.790802,135.070892 
	C141.913422,134.654068 140.439438,133.062546 141.373291,129.065674 
	C142.852661,122.734032 144.051315,116.295204 144.746292,109.834763 
	C145.324982,104.455414 144.899033,98.974556 145.158798,93.550179 
	C145.233093,91.998482 145.676727,89.799492 146.749451,89.067665 
	C154.153580,84.016510 149.821136,76.855164 150.766495,71.771217 
	C146.826630,70.409836 143.618576,69.301331 140.072128,68.029922 
	C151.560226,60.214203 163.386703,52.561382 175.567886,44.852417 
z"/>
<path fill="#F78A2E" opacity="1.000000" stroke="none" 
	d="
M474.828979,109.454430 
	C476.559540,106.795891 478.796112,104.579674 480.395569,101.972588 
	C482.446838,98.628975 484.532013,95.128006 485.601471,91.407089 
	C486.826202,87.146065 487.097839,82.582329 487.493042,78.124344 
	C487.679077,76.025414 486.756134,73.797241 487.085388,71.748093 
	C487.889832,66.741486 487.223785,62.149536 485.519836,57.344440 
	C484.733307,55.126530 486.330353,52.063370 487.009094,49.013161 
	C504.561279,55.934998 518.739624,68.018784 533.927612,79.466408 
	C532.519287,81.038750 531.492004,82.303528 530.344849,83.448227 
	C518.571533,95.196335 506.710327,106.857635 495.049133,118.715721 
	C492.708466,121.095917 491.090027,121.396805 488.431213,119.297615 
	C484.131714,115.903069 479.527435,112.894577 474.828979,109.454430 
z"/>
<path fill="#F25936" opacity="1.000000" stroke="none" 
	d="
M153.327698,490.920898 
	C154.421326,487.858185 155.911118,484.690674 157.192734,481.441071 
	C158.765976,477.451904 160.357178,473.450653 161.566788,469.344513 
	C162.277496,466.931976 162.167374,464.288971 162.606979,461.781250 
	C162.891449,460.158386 163.902222,458.590271 163.892380,457.001923 
	C163.861847,452.082245 163.222672,447.622803 166.520050,442.761536 
	C169.515488,438.345398 164.052948,431.716400 157.243332,429.095612 
	C155.018906,428.239502 153.262436,426.167450 151.149323,424.333923 
	C152.173065,422.820984 153.339417,421.625671 155.026611,420.517517 
	C159.103561,419.279572 163.658203,418.836365 162.195297,413.078125 
	C164.293030,410.869781 166.390778,408.661407 168.947769,406.503967 
	C169.674988,406.064575 169.942932,405.574280 170.210876,405.083984 
	C176.007614,399.231873 181.804352,393.379761 188.133209,387.263245 
	C189.112061,386.998444 189.558777,386.998016 190.005493,386.997559 
	C191.757095,388.776154 193.508682,390.554718 195.796616,392.877930 
	C192.895950,393.792084 190.796860,394.151917 188.990799,395.081238 
	C184.190308,397.551331 183.200867,401.578156 186.042191,406.076416 
	C189.153641,411.002319 188.528122,412.861877 183.792404,416.808807 
	C182.357513,418.004669 181.289337,420.762573 181.520264,422.622894 
	C182.190369,428.021027 183.880966,433.289276 184.612869,438.684235 
	C184.989166,441.458008 187.180496,445.686493 181.433792,446.221375 
	C180.966019,446.264923 180.360886,447.000519 180.174652,447.537628 
	C179.211945,450.314270 182.943787,456.114655 186.560089,456.985107 
	C175.839249,468.247253 164.735397,479.513458 153.327698,490.920898 
z"/>
<path fill="#F25936" opacity="1.000000" stroke="none" 
	d="
M236.559830,192.791748 
	C233.899826,192.947037 231.102753,192.812775 228.342819,192.680283 
	C226.807571,193.881577 224.561188,195.639282 221.701019,197.698502 
	C217.209915,198.000000 213.332642,198.000000 209.455170,197.994873 
	C210.788162,205.670212 210.638474,205.867630 203.176285,205.881561 
	C206.568008,212.295105 198.649887,212.357986 196.821564,216.065598 
	C198.967941,216.871582 200.474686,217.437393 201.981445,218.003204 
	C201.906891,218.439102 201.832336,218.875015 201.757782,219.310913 
	C200.015121,219.310913 198.272461,219.310913 195.928772,219.310913 
	C196.268982,221.031052 196.232208,222.391998 196.797592,223.422607 
	C198.729507,226.944199 197.752457,229.014938 194.013290,230.162292 
	C192.624054,230.588577 191.344666,231.372910 190.012054,231.574051 
	C189.380157,229.104263 188.751389,227.054382 188.122620,225.004501 
	C188.034775,221.691147 187.746658,218.365448 187.949875,215.070038 
	C188.041306,213.587387 188.755371,211.803757 189.796478,210.771439 
	C200.511948,200.146271 211.352402,189.647141 222.795822,178.491165 
	C227.033096,182.847870 231.727936,187.675034 236.559830,192.791748 
z"/>
<path fill="#EF4A3A" opacity="1.000000" stroke="none" 
	d="
M97.982834,471.381165 
	C96.663857,473.761627 95.186607,475.839905 93.393188,477.604126 
	C93.015190,476.263550 92.953354,475.237091 92.891525,474.210602 
	C92.008636,474.462494 90.986465,474.513306 90.271912,475.008209 
	C88.795486,476.030853 87.482956,477.290131 85.539474,478.926544 
	C87.042770,479.393890 88.021538,479.698151 89.000305,480.002441 
	C87.575050,483.618073 86.149796,487.233704 84.363190,490.924683 
	C83.148239,489.641693 82.245583,488.311066 81.457840,486.915619 
	C80.910591,485.946167 79.844482,484.373627 80.167007,483.948761 
	C83.150673,480.018555 80.170975,477.143372 78.881241,473.795044 
	C76.119164,466.624207 79.716148,459.416321 87.877815,455.118195 
	C91.333252,460.249451 94.578903,465.664246 97.982834,471.381165 
z"/>
<path fill="#F25936" opacity="1.000000" stroke="none" 
	d="
M197.000000,350.000000 
	C194.512375,357.832886 198.738327,365.034668 199.327896,372.592468 
	C199.589142,375.941193 199.292572,377.744812 196.447723,379.398468 
	C194.360153,380.611938 192.603622,382.394897 190.351410,383.503723 
	C190.002594,381.307526 190.247955,379.487091 189.936432,377.767578 
	C189.579987,375.800323 188.728622,373.922729 188.092285,372.006195 
	C188.033234,370.931976 187.974167,369.857758 188.390320,368.283142 
	C189.243576,366.106598 189.938400,364.432556 189.949615,362.753967 
	C190.040344,349.170624 190.002731,335.586395 190.389755,322.094360 
	C191.183548,323.660248 191.663925,325.118591 191.988052,326.610840 
	C193.680573,334.402496 195.333389,342.202728 197.000000,350.000000 
z"/>
<path fill="#F05136" opacity="1.000000" stroke="none" 
	d="
M190.004272,322.002441 
	C190.002731,335.586395 190.040344,349.170624 189.949615,362.753967 
	C189.938400,364.432556 189.243576,366.106598 188.480759,367.887787 
	C188.024460,351.712952 187.902084,335.433136 187.892334,319.153229 
	C187.873703,288.077484 187.919266,257.001678 188.030396,225.465210 
	C188.751389,227.054382 189.380157,229.104263 190.007324,232.012543 
	C190.007126,234.915634 190.008514,236.960297 190.007370,239.473083 
	C190.004425,261.626678 190.004044,283.312134 190.002701,305.373230 
	C190.002533,306.500031 190.003326,307.251221 190.003174,308.456268 
	C190.003128,311.939148 190.003998,314.968201 190.003555,318.397705 
	C190.002914,319.866272 190.003586,320.934357 190.004272,322.002441 
z"/>
<path fill="#F9A32E" opacity="1.000000" stroke="none" 
	d="
M579.571045,128.341705 
	C576.742371,128.806808 573.762451,128.952408 570.392456,129.049316 
	C569.953186,128.052094 569.903992,127.103561 569.780029,125.680008 
	C570.996704,123.789238 572.288025,122.373482 574.009033,120.486687 
	C576.033264,123.305824 577.726562,125.664001 579.571045,128.341705 
z"/>
<path fill="#F7842D" opacity="1.000000" stroke="none" 
	d="
M437.012146,485.353271 
	C441.416504,483.387970 445.329132,485.937927 449.876678,486.989258 
	C448.539795,488.867950 446.798279,490.745148 443.750397,494.030487 
	C441.343109,490.967957 439.255157,488.311737 437.012146,485.353271 
z"/>
<path fill="#EF4A3A" opacity="1.000000" stroke="none" 
	d="
M132.469208,74.019432 
	C134.163315,75.506927 135.633743,77.022385 136.833374,78.728294 
	C137.016876,78.989258 135.692825,80.828712 135.499390,80.757690 
	C133.058548,79.861656 130.697281,78.748795 128.164948,77.364044 
	C129.395142,76.061066 130.776093,75.085350 132.469208,74.019432 
z"/>
<path fill="#F78A2E" opacity="1.000000" stroke="none" 
	d="
M409.338989,652.755005 
	C409.709015,647.960938 410.429108,643.177490 411.149200,638.393982 
	C411.663147,638.373718 412.177124,638.353455 412.691071,638.333191 
	C414.606354,642.024963 409.290619,647.549255 414.940155,650.665100 
	C413.230774,651.601807 411.459930,652.183655 409.338989,652.755005 
z"/>
<path fill="#F05136" opacity="1.000000" stroke="none" 
	d="
M188.001526,372.464355 
	C188.728622,373.922729 189.579987,375.800323 189.936432,377.767578 
	C190.247955,379.487091 190.002594,381.307526 190.005936,383.541687 
	C190.006638,384.749420 190.004654,385.498840 190.004089,386.622925 
	C189.558777,386.998016 189.112061,386.998444 188.330368,386.997620 
	C187.967178,382.305054 187.938965,377.613800 188.001526,372.464355 
z"/>
<path fill="#F15337" opacity="1.000000" stroke="none" 
	d="
M161.890228,413.220062 
	C163.658203,418.836365 159.103561,419.279572 155.312927,420.395142 
	C157.247345,417.911072 159.416260,415.636536 161.890228,413.220062 
z"/>
<path fill="#F8962E" opacity="1.000000" stroke="none" 
	d="
M531.390259,511.497040 
	C531.503906,513.599182 531.322449,515.864990 531.140991,518.130798 
	C529.779541,517.911377 528.418030,517.691956 526.978394,517.100586 
	C528.298523,515.039368 529.696838,513.350037 531.390259,511.497040 
z"/>
<path fill="#F15935" opacity="1.000000" stroke="none" 
	d="
M205.451645,30.464903 
	C205.169220,32.073750 204.525543,33.737652 203.881882,35.401558 
	C202.613724,34.791222 201.345551,34.180885 200.020416,33.221687 
	C201.672424,32.088539 203.381409,31.304249 205.451645,30.464903 
z"/>
<path fill="#F9A32E" opacity="1.000000" stroke="none" 
	d="
M571.487183,446.585083 
	C572.315979,449.868652 572.008423,453.030426 568.063354,454.957764 
	C568.838318,452.261658 570.003052,449.523071 571.487183,446.585083 
z"/>
<path fill="#F25936" opacity="1.000000" stroke="none" 
	d="
M148.310699,495.914124 
	C149.111038,494.702637 150.205826,493.362366 151.682404,492.023438 
	C150.911194,493.278290 149.758179,494.531799 148.310699,495.914124 
z"/>
<path fill="#F9A32E" opacity="1.000000" stroke="none" 
	d="
M578.193787,430.049988 
	C580.880005,432.104614 579.203979,433.514313 576.858276,434.856506 
	C576.983154,433.344299 577.497620,431.837585 578.193787,430.049988 
z"/>
<path fill="#FAAC2D" opacity="1.000000" stroke="none" 
	d="
M584.408813,411.078186 
	C586.915710,412.537567 585.971497,413.777679 583.695190,414.937683 
	C583.653015,413.778778 583.933960,412.554138 584.408813,411.078186 
z"/>
<path fill="#F46E32" opacity="1.000000" stroke="none" 
	d="
M368.107727,67.571724 
	C368.841461,67.334709 369.851807,67.276283 370.927460,67.547539 
	C370.123291,67.834908 369.253845,67.792610 368.107727,67.571724 
z"/>
<path fill="#F67C2D" opacity="1.000000" stroke="none" 
	d="
M408.233459,16.537924 
	C407.282837,16.508541 406.215088,16.137865 405.073456,15.409031 
	C406.038483,15.432791 407.077393,15.814710 408.233459,16.537924 
z"/>
<path fill="#F46E32" opacity="1.000000" stroke="none" 
	d="
M315.706238,5.699366 
	C315.102539,6.038434 314.207367,6.239610 313.150452,6.210230 
	C313.797394,5.840274 314.606110,5.700874 315.706238,5.699366 
z"/>
<path fill="#F15337" opacity="1.000000" stroke="none" 
	d="
M169.960159,405.196136 
	C169.942932,405.574280 169.674988,406.064575 169.243988,406.371765 
	C169.290436,405.895172 169.499939,405.601746 169.960159,405.196136 
z"/>
<path fill="#FAA62C" opacity="1.000000" stroke="none" 
	d="
M579.264038,504.779572 
	C574.251892,504.882874 573.602539,501.023041 576.172363,499.260986 
	C583.001770,494.578064 580.128235,488.008820 581.120605,482.127228 
	C581.522705,479.744293 583.246338,477.584320 584.684326,475.161438 
	C588.932434,479.701569 586.000305,484.860107 585.317017,489.512634 
	C584.551147,494.727417 583.579346,500.376678 579.264038,504.779572 
z"/>
<path fill="#F15635" opacity="1.000000" stroke="none" 
	d="
M190.004120,308.002441 
	C190.003326,307.251221 190.002533,306.500031 190.377396,305.290802 
	C193.738586,299.341400 193.090118,293.588104 192.448349,287.671539 
	C192.103271,284.490356 193.180969,281.157623 193.593765,277.890381 
	C193.822418,276.080719 194.194138,274.259552 194.141525,272.454071 
	C194.104736,271.191803 193.190231,269.960571 193.127640,268.692749 
	C192.678421,259.592926 192.395065,250.484680 191.896881,241.388000 
	C191.851624,240.561676 190.665985,239.797821 190.009918,239.004974 
	C190.008514,236.960297 190.007126,234.915634 190.010452,232.432465 
	C191.344666,231.372910 192.624054,230.588577 194.013290,230.162292 
	C197.752457,229.014938 198.729507,226.944199 196.797592,223.422607 
	C196.232208,222.391998 196.268982,221.031052 195.928772,219.310913 
	C198.272461,219.310913 200.015121,219.310913 201.757782,219.310913 
	C201.832336,218.875015 201.906891,218.439102 201.981445,218.003204 
	C200.474686,217.437393 198.967941,216.871582 196.821564,216.065598 
	C198.649887,212.357986 206.568008,212.295105 203.176285,205.881561 
	C210.638474,205.867630 210.788162,205.670212 209.455170,197.994873 
	C213.332642,198.000000 217.209915,198.000000 221.543610,198.000000 
	C223.250717,202.574127 224.696274,206.406052 230.482529,207.598618 
	C235.312424,208.594055 235.465561,211.109436 233.806000,215.943298 
	C232.127686,220.831757 231.296555,226.006271 229.961304,231.020035 
	C229.512451,232.705505 229.112762,234.881119 227.904739,235.803741 
	C222.993347,239.554764 223.343796,244.405472 224.722015,249.350357 
	C226.057098,254.140396 226.073273,258.035156 223.527954,262.954315 
	C221.198883,267.455536 219.770554,272.901733 219.486404,278.732941 
	C219.140366,285.834259 221.760117,293.654114 216.942108,300.368317 
	C216.452301,301.050903 216.982544,302.451538 217.007172,303.519714 
	C217.098770,307.491486 217.938202,311.634277 217.094315,315.398438 
	C215.553558,322.270905 213.041107,328.928345 210.856186,335.650238 
	C210.564606,336.547272 209.908539,337.375061 209.269440,338.101288 
	C206.727783,340.989380 204.188477,343.884888 201.516907,346.650726 
	C200.381775,347.825928 198.922852,348.688354 197.305542,349.846466 
	C195.333389,342.202728 193.680573,334.402496 191.988052,326.610840 
	C191.663925,325.118591 191.183548,323.660248 190.389755,322.094360 
	C190.003586,320.934357 190.002914,319.866272 190.387970,318.305939 
	C192.402557,314.395386 193.632019,311.008423 190.004120,308.002441 
z"/>
<path fill="#F46C31" opacity="1.000000" stroke="none" 
	d="
M296.424072,287.437897 
	C295.598907,287.348877 295.002991,287.033752 294.407074,286.718597 
	C294.847931,286.282654 295.288788,285.846741 295.729645,285.410797 
	C296.037567,286.011108 296.345459,286.611450 296.424072,287.437897 
z"/>
<path fill="#ED433C" opacity="1.000000" stroke="none" 
	d="
M89.160744,479.698212 
	C88.021538,479.698151 87.042770,479.393890 85.539474,478.926544 
	C87.482956,477.290131 88.795486,476.030853 90.271912,475.008209 
	C90.986465,474.513306 92.008636,474.462494 92.891525,474.210602 
	C92.953354,475.237091 93.015190,476.263550 93.039276,477.645020 
	C91.774750,478.464661 90.547966,478.929321 89.160744,479.698212 
z"/>
<path fill="#F25936" opacity="1.000000" stroke="none" 
	d="
M190.007370,239.473083 
	C190.665985,239.797821 191.851624,240.561676 191.896881,241.388000 
	C192.395065,250.484680 192.678421,259.592926 193.127640,268.692749 
	C193.190231,269.960571 194.104736,271.191803 194.141525,272.454071 
	C194.194138,274.259552 193.822418,276.080719 193.593765,277.890381 
	C193.180969,281.157623 192.103271,284.490356 192.448349,287.671539 
	C193.090118,293.588104 193.738586,299.341400 190.378357,304.915222 
	C190.004044,283.312134 190.004425,261.626678 190.007370,239.473083 
z"/>
<path fill="#F25936" opacity="1.000000" stroke="none" 
	d="
M190.003174,308.456268 
	C193.632019,311.008423 192.402557,314.395386 190.389297,317.905457 
	C190.003998,314.968201 190.003128,311.939148 190.003174,308.456268 
z"/>
</svg>